Coordinates
version=1
nRows=22
nColumns=24
inDegrees=yes

Units are S.I. units (second, meters, Newtons, ...)
Angles are in degrees.

endheader
time	pelvis_tilt	pelvis_list	pelvis_rotation	pelvis_tx	pelvis_ty	pelvis_tz	hip_flexion_r	hip_adduction_r	hip_rotation_r	knee_angle_r	ankle_angle_r	subtalar_angle_r	mtp_angle_r	hip_flexion_l	hip_adduction_l	hip_rotation_l	knee_angle_l	ankle_angle_l	subtalar_angle_l	mtp_angle_l	lumbar_extension	lumbar_bending	lumbar_rotation
      4.83000000	    -11.72360678	      7.01187118	      5.68080384	     -1.64515448	     -0.03496441	      2.02774159	     14.11122153	    -13.92207805	    -16.40823299	    -58.29713997	    -16.98748106	     -5.51517068	    -17.46100473	     30.05248941	     12.13648383	     -5.24104880	    -22.18433783	     -4.07107419	     -7.11979076	     16.62414585	      9.26337951	    -10.62613058	     -2.94940629
      4.84000000	    -11.62490784	      7.16716187	      5.50753365	     -1.63302932	     -0.03302758	      2.02706354	     15.86080338	    -13.98926302	    -15.30838355	    -60.11416982	    -15.74165314	     -7.48975705	    -17.77267736	     28.87940590	     12.12927258	     -5.79840087	    -21.78970209	     -3.24246015	     -6.39029877	     17.20570879	      9.12682834	    -10.72547708	     -3.06151018
      4.85000000	    -11.63315588	      7.21418883	      5.37340291	     -1.62102924	     -0.03113465	      2.02646256	     17.76674999	    -13.85447374	    -14.12436991	    -61.74668331	    -13.77695486	     -8.53601793	    -21.20103111	     27.77416227	     12.05192033	     -6.20784649	    -21.21745262	     -2.96420319	     -6.00362954	     19.86275377	      9.10769017	    -10.73334198	     -3.26528685
      4.86000000	    -11.42024211	      7.23863955	      5.11281463	     -1.60909940	     -0.02889110	      2.02601548	     19.41110620	    -13.58920060	    -12.93356897	    -62.97141303	    -12.47523177	     -9.38915227	    -21.27382302	     26.36903721	     11.95779693	     -6.39906600	    -20.59313246	     -2.30124531	     -5.59341058	     19.93317419	      8.86585068	    -10.66644553	     -3.30344689
      4.87000000	    -11.25471115	      7.26043460	      4.91977391	     -1.59725979	     -0.02678919	      2.02547443	     21.06755808	    -13.32336913	    -11.82315938	    -63.95858115	    -11.09788420	     -9.62342668	    -21.21557561	     24.96263884	     11.94464226	     -6.36951429	    -19.86350803	     -1.76240486	     -5.38721476	     19.82302853	      8.66153355	    -10.61149696	     -3.41515899
      4.88000000	    -11.09607659	      7.19578550	      4.66415826	     -1.58547050	     -0.02473282	      2.02497110	     22.69883719	    -12.89310460	    -10.70390786	    -64.63493133	     -9.76784119	     -9.48043736	    -21.29574628	     23.53713113	     11.86329964	     -6.21877374	    -19.07351841	     -1.18195993	     -5.34465085	     19.01439507	      8.48714122	    -10.44520090	     -3.40280157
      4.89000000	    -10.90528976	      7.05673916	      4.58632057	     -1.57379573	     -0.02279333	      2.02424643	     24.14961108	    -12.45103152	     -9.87279947	    -65.00338762	     -8.33386692	     -8.96894826	    -21.24847917	     22.10441194	     11.79005036	     -5.86425190	    -18.37150932	     -0.41470265	     -5.20941130	     17.22359735	      8.23109255	    -10.23376200	     -3.62766898
      4.90000000	    -10.75854937	      6.86440414	      4.48395850	     -1.56216646	     -0.02098692	      2.02357955	     25.58687312	    -11.91887755	     -9.08987806	    -65.06906196	     -7.05270367	     -8.37051035	    -20.93393880	     20.70189022	     11.64461720	     -5.56409001	    -17.55223888	     -0.03519678	     -5.29266647	     16.92136372	      8.03616554	     -9.96768429	     -3.77851224
      4.91000000	    -10.63931051	      6.58789934	      4.49530579	     -1.55062670	     -0.01936317	      2.02278563	     26.92996202	    -11.35839107	     -8.53750744	    -64.82881940	     -5.81283840	     -7.70957775	    -20.65090473	     19.37390297	     11.43881800	     -5.18290506	    -16.81246834	      0.39603736	     -5.28019075	     16.73039750	      7.84586424	     -9.63862872	     -4.00863526
      4.92000000	    -10.33248241	      6.26403464	      4.49966182	     -1.53915021	     -0.01758117	      2.02198670	     27.94573675	    -10.73993996	     -8.11291558	    -64.23000154	     -4.67595228	     -7.14614772	    -20.67015683	     17.84371564	     11.17531431	     -4.74535965	    -16.06815009	      0.83934916	     -5.32795512	     15.80537521	      7.44456156	     -9.24288612	     -4.24493614
      4.93000000	    -10.16316777	      5.87689893	      4.65350617	     -1.52779296	     -0.01615475	      2.02101098	     28.99995291	    -10.17030964	     -7.93405342	    -63.38146449	     -3.54914790	     -6.61128540	    -21.10297450	     16.52372658	     10.87319620	     -4.26789211	    -15.43215565	      1.36656769	     -5.24157072	     14.96068752	      7.16467672	     -8.81293740	     -4.61372784
      4.94000000	    -10.11758929	      5.50236510	      4.86629336	     -1.51653330	     -0.01507036	      2.01997956	     30.11119644	     -9.69249303	     -7.89034985	    -62.30126479	     -2.58006150	     -6.16803619	    -21.25832242	     15.36907348	     10.58116939	     -3.85947336	    -14.81364235	      1.76906052	     -5.14621373	     14.78591328	      7.00512419	     -8.41243138	     -4.99750474
      4.95000000	     -9.80846111	      5.12334098	      5.00687341	     -1.50528431	     -0.01380352	      2.01903856	     30.82685176	     -9.17529947	     -7.88319816	    -60.91988818	     -1.55621955	     -5.77879243	    -22.93251574	     13.90364516	     10.24875981	     -3.39242469	    -14.14582400	      2.21737118	     -5.15628768	     13.92716476	      6.56922698	     -7.96747434	     -5.27488654
      4.96000000	     -9.88689308	      4.63393617	      5.40038134	     -1.49418819	     -0.01315494	      2.01787506	     31.84109024	     -8.74969670	     -8.24763350	    -59.28884066	     -0.95155407	     -5.68328826	    -23.28453066	     12.97795109	      9.84757690	     -2.88947856	    -13.66181248	      2.65969994	     -5.01258278	     13.87844114	      6.52346344	     -7.48191202	     -5.81045933
      4.97000000	     -9.73982764	      4.24362565	      5.65980197	     -1.48302733	     -0.01246380	      2.01688302	     32.53400998	     -8.34673055	     -8.43576995	    -57.49329336	      0.42813487	     -5.14796522	    -27.84352320	     11.77209870	      9.49691474	     -2.45360914	    -13.13322718	      3.27482961	     -4.85682576	     12.67903291	      6.25617443	     -7.05147741	     -6.17588038
      4.98000000	     -9.71584292	      3.81726112	      5.98192377	     -1.47192521	     -0.01204562	      2.01589033	     33.23131065	     -7.98884200	     -8.84377724	    -55.37786267	      0.91969264	     -5.05450170	    -28.01004743	     10.73046067	      9.10579135	     -2.03751968	    -12.59519024	      3.64364943	     -4.79474112	     12.72076289	      6.12213405	     -6.60596442	     -6.59084463
      4.99000000	     -9.48630931	      3.46238640	      6.22010136	     -1.46077531	     -0.01160206	      2.01502625	     33.59640431	     -7.65716583	     -9.18660504	    -53.05545313	      1.62930852	     -4.70736885	    -28.85854574	      9.43081855	      8.73945690	     -1.70509956	    -11.99540184	      4.04615387	     -4.71193871	     12.54592908	      5.77622731	     -6.19451105	     -6.93874933
      5.00000000	     -9.57949852	      3.07160123	      6.52624630	     -1.44969322	     -0.01168564	      2.01422023	     34.22762760	     -7.36318801	     -9.66665826	    -50.53167152	      2.11429472	     -4.53751081	    -29.36456136	      8.56500261	      8.35704518	     -1.38363956	    -11.52752497	      4.47223089	     -4.59780859	     12.45184823	      5.77766632	     -5.80004577	     -7.29543939
      5.01000000	     -9.51022233	      2.80289179	      6.70389058	     -1.43852246	     -0.01188620	      2.01350790	     34.62400332	     -7.13754185	     -9.98152847	    -47.94581708	      3.48386814	     -3.71949696	    -34.17103398	      7.48360483	      8.07077708	     -1.20098277	    -11.04208943	      5.15641482	     -4.41717760	     11.09820862	      5.61224293	     -5.47648547	     -7.52488196
      5.02000000	     -9.57034763	      2.50288988	      6.92630138	     -1.42737160	     -0.01237537	      2.01287354	     35.06218792	     -6.95405579	    -10.55251547	    -45.13591177	      3.92807954	     -3.13480116	    -34.29346760	      6.57961707	      7.74920399	     -1.04139515	    -10.57449452	      5.58462605	     -4.31839633	     11.14913073	      5.58128669	     -5.15091608	     -7.79634089
      5.03000000	     -9.56219719	      2.22684999	      7.07595759	     -1.41616019	     -0.01298885	      2.01237883	     35.35507452	     -6.77475401	    -11.18360834	    -42.20859422	      4.40693345	     -2.24974737	    -34.55615192	      5.60027593	      7.42570113	     -0.98424960	    -10.11327444	      6.05688448	     -4.19948837	     11.12391971	      5.48183070	     -4.82860491	     -7.99187667
      5.04000000	     -9.45213733	      1.94692811	      7.07080904	     -1.40487412	     -0.01362911	      2.01214384	     35.47859194	     -6.48729930	    -11.77605051	    -39.15803848	      4.92922036	     -1.09775089	    -35.56747963	      4.49945765	      7.05870374	     -1.06865363	     -9.63455156	      6.57011768	     -4.07963817	     10.83023127	      5.28437167	     -4.46616943	     -7.97833342
